<mxfile host="Electron" modified="2024-02-08T03:43:25.155Z" agent="Mozilla/5.0 (Windows NT 10.0; Win64; x64) AppleWebKit/537.36 (KHTML, like Gecko) draw.io/21.1.2 Chrome/106.0.5249.199 Electron/21.4.3 Safari/537.36" etag="A49O_7ZhLWm8YiJjJCfK" version="21.1.2" type="device" pages="4">
  <diagram name="PQC" id="VGf8a-Ys3_M0wUvMM8ru">
    <mxGraphModel dx="1418" dy="820" grid="1" gridSize="10" guides="1" tooltips="1" connect="1" arrows="1" fold="1" page="1" pageScale="1" pageWidth="850" pageHeight="1100" math="1" shadow="0">
      <root>
        <mxCell id="0" />
        <mxCell id="1" parent="0" />
        <mxCell id="xjDcZ34xmgJnRlQgSQSB-50" value="" style="rounded=0;whiteSpace=wrap;html=1;fillColor=none;dashed=1;" parent="1" vertex="1">
          <mxGeometry x="228" y="252" width="486" height="180" as="geometry" />
        </mxCell>
        <mxCell id="xjDcZ34xmgJnRlQgSQSB-2" value="$$\left| 0 \right\rangle$$" style="text;html=1;align=center;verticalAlign=middle;resizable=0;points=[];autosize=1;strokeColor=none;fillColor=none;fontSize=18;" parent="1" vertex="1">
          <mxGeometry x="70" y="260" width="210" height="40" as="geometry" />
        </mxCell>
        <mxCell id="xjDcZ34xmgJnRlQgSQSB-1" value="" style="endArrow=none;html=1;rounded=0;strokeWidth=3;" parent="1" edge="1">
          <mxGeometry width="50" height="50" relative="1" as="geometry">
            <mxPoint x="200" y="280" as="sourcePoint" />
            <mxPoint x="240" y="280" as="targetPoint" />
          </mxGeometry>
        </mxCell>
        <mxCell id="xjDcZ34xmgJnRlQgSQSB-3" value="$$\left| 0 \right\rangle$$" style="text;html=1;align=center;verticalAlign=middle;resizable=0;points=[];autosize=1;strokeColor=none;fillColor=none;fontSize=18;" parent="1" vertex="1">
          <mxGeometry x="70" y="300" width="210" height="40" as="geometry" />
        </mxCell>
        <mxCell id="xjDcZ34xmgJnRlQgSQSB-4" value="$$\left| 0 \right\rangle$$" style="text;html=1;align=center;verticalAlign=middle;resizable=0;points=[];autosize=1;strokeColor=none;fillColor=none;fontSize=18;" parent="1" vertex="1">
          <mxGeometry x="70" y="340" width="210" height="40" as="geometry" />
        </mxCell>
        <mxCell id="xjDcZ34xmgJnRlQgSQSB-5" value="$$\left| 0 \right\rangle$$" style="text;html=1;align=center;verticalAlign=middle;resizable=0;points=[];autosize=1;strokeColor=none;fillColor=none;fontSize=18;" parent="1" vertex="1">
          <mxGeometry x="70" y="380" width="210" height="40" as="geometry" />
        </mxCell>
        <mxCell id="xjDcZ34xmgJnRlQgSQSB-6" value="" style="endArrow=none;html=1;rounded=0;strokeWidth=3;" parent="1" edge="1">
          <mxGeometry width="50" height="50" relative="1" as="geometry">
            <mxPoint x="200" y="319.71" as="sourcePoint" />
            <mxPoint x="240" y="319.71" as="targetPoint" />
          </mxGeometry>
        </mxCell>
        <mxCell id="xjDcZ34xmgJnRlQgSQSB-7" value="" style="endArrow=none;html=1;rounded=0;strokeWidth=3;" parent="1" edge="1">
          <mxGeometry width="50" height="50" relative="1" as="geometry">
            <mxPoint x="200" y="359.71" as="sourcePoint" />
            <mxPoint x="240" y="359.71" as="targetPoint" />
          </mxGeometry>
        </mxCell>
        <mxCell id="xjDcZ34xmgJnRlQgSQSB-8" value="" style="endArrow=none;html=1;rounded=0;strokeWidth=3;" parent="1" edge="1">
          <mxGeometry width="50" height="50" relative="1" as="geometry">
            <mxPoint x="200" y="399.71" as="sourcePoint" />
            <mxPoint x="240" y="399.71" as="targetPoint" />
          </mxGeometry>
        </mxCell>
        <mxCell id="xjDcZ34xmgJnRlQgSQSB-9" value="$$R_y(\theta_{\ell,y}^{(1)})$$" style="rounded=0;whiteSpace=wrap;html=1;" parent="1" vertex="1">
          <mxGeometry x="240" y="265" width="80" height="30" as="geometry" />
        </mxCell>
        <mxCell id="xjDcZ34xmgJnRlQgSQSB-10" value="$$R_y(\theta_{\ell,y}^{(2)})$$" style="rounded=0;whiteSpace=wrap;html=1;" parent="1" vertex="1">
          <mxGeometry x="240" y="305" width="80" height="30" as="geometry" />
        </mxCell>
        <mxCell id="xjDcZ34xmgJnRlQgSQSB-11" value="$$R_y(\theta_{\ell,y}^{(3)})$$" style="rounded=0;whiteSpace=wrap;html=1;" parent="1" vertex="1">
          <mxGeometry x="240" y="345" width="80" height="30" as="geometry" />
        </mxCell>
        <mxCell id="xjDcZ34xmgJnRlQgSQSB-12" value="$$R_y(\theta_{\ell,y}^{(4)})$$" style="rounded=0;whiteSpace=wrap;html=1;" parent="1" vertex="1">
          <mxGeometry x="240" y="385" width="80" height="30" as="geometry" />
        </mxCell>
        <mxCell id="xjDcZ34xmgJnRlQgSQSB-13" value="$$R_y(\theta_{\ell+1,y}^{(1)})$$" style="rounded=0;whiteSpace=wrap;html=1;" parent="1" vertex="1">
          <mxGeometry x="480" y="265" width="80" height="30" as="geometry" />
        </mxCell>
        <mxCell id="xjDcZ34xmgJnRlQgSQSB-14" value="$$R_y(\theta_{\ell+1,y}^{(2)})$$" style="rounded=0;whiteSpace=wrap;html=1;" parent="1" vertex="1">
          <mxGeometry x="480" y="305" width="80" height="30" as="geometry" />
        </mxCell>
        <mxCell id="xjDcZ34xmgJnRlQgSQSB-15" value="$$R_y(\theta_{\ell+1,y}^{(3)})$$" style="rounded=0;whiteSpace=wrap;html=1;" parent="1" vertex="1">
          <mxGeometry x="480" y="345" width="80" height="30" as="geometry" />
        </mxCell>
        <mxCell id="xjDcZ34xmgJnRlQgSQSB-16" value="$$R_y(\theta_{\ell+1,y}^{(4)})$$" style="rounded=0;whiteSpace=wrap;html=1;" parent="1" vertex="1">
          <mxGeometry x="480" y="385" width="80" height="30" as="geometry" />
        </mxCell>
        <mxCell id="xjDcZ34xmgJnRlQgSQSB-17" value="" style="endArrow=none;html=1;rounded=0;strokeWidth=3;" parent="1" edge="1">
          <mxGeometry width="50" height="50" relative="1" as="geometry">
            <mxPoint x="320" y="399.71" as="sourcePoint" />
            <mxPoint x="360" y="399.71" as="targetPoint" />
          </mxGeometry>
        </mxCell>
        <mxCell id="xjDcZ34xmgJnRlQgSQSB-18" value="" style="endArrow=none;html=1;rounded=0;strokeWidth=3;" parent="1" edge="1">
          <mxGeometry width="50" height="50" relative="1" as="geometry">
            <mxPoint x="320" y="359.71" as="sourcePoint" />
            <mxPoint x="360" y="359.71" as="targetPoint" />
          </mxGeometry>
        </mxCell>
        <mxCell id="xjDcZ34xmgJnRlQgSQSB-19" value="" style="endArrow=none;html=1;rounded=0;strokeWidth=3;" parent="1" edge="1">
          <mxGeometry width="50" height="50" relative="1" as="geometry">
            <mxPoint x="320" y="319.71" as="sourcePoint" />
            <mxPoint x="360" y="319.71" as="targetPoint" />
          </mxGeometry>
        </mxCell>
        <mxCell id="xjDcZ34xmgJnRlQgSQSB-20" value="" style="endArrow=none;html=1;rounded=0;strokeWidth=3;" parent="1" edge="1">
          <mxGeometry width="50" height="50" relative="1" as="geometry">
            <mxPoint x="320" y="280" as="sourcePoint" />
            <mxPoint x="360" y="280" as="targetPoint" />
          </mxGeometry>
        </mxCell>
        <mxCell id="xjDcZ34xmgJnRlQgSQSB-25" value="" style="endArrow=none;html=1;rounded=0;strokeWidth=3;" parent="1" edge="1">
          <mxGeometry width="50" height="50" relative="1" as="geometry">
            <mxPoint x="560" y="399.79999999999995" as="sourcePoint" />
            <mxPoint x="600" y="399.79999999999995" as="targetPoint" />
          </mxGeometry>
        </mxCell>
        <mxCell id="xjDcZ34xmgJnRlQgSQSB-26" value="" style="endArrow=none;html=1;rounded=0;strokeWidth=3;" parent="1" edge="1">
          <mxGeometry width="50" height="50" relative="1" as="geometry">
            <mxPoint x="560" y="359.79999999999995" as="sourcePoint" />
            <mxPoint x="600" y="359.79999999999995" as="targetPoint" />
          </mxGeometry>
        </mxCell>
        <mxCell id="xjDcZ34xmgJnRlQgSQSB-27" value="" style="endArrow=none;html=1;rounded=0;strokeWidth=3;" parent="1" edge="1">
          <mxGeometry width="50" height="50" relative="1" as="geometry">
            <mxPoint x="560" y="319.79999999999995" as="sourcePoint" />
            <mxPoint x="600" y="319.79999999999995" as="targetPoint" />
          </mxGeometry>
        </mxCell>
        <mxCell id="xjDcZ34xmgJnRlQgSQSB-28" value="" style="endArrow=none;html=1;rounded=0;strokeWidth=3;" parent="1" edge="1">
          <mxGeometry width="50" height="50" relative="1" as="geometry">
            <mxPoint x="560" y="279.8" as="sourcePoint" />
            <mxPoint x="600" y="279.8" as="targetPoint" />
          </mxGeometry>
        </mxCell>
        <mxCell id="xjDcZ34xmgJnRlQgSQSB-31" value="" style="endArrow=none;html=1;rounded=0;strokeWidth=3;" parent="1" edge="1">
          <mxGeometry width="50" height="50" relative="1" as="geometry">
            <mxPoint x="680" y="359.79999999999995" as="sourcePoint" />
            <mxPoint x="720" y="359.79999999999995" as="targetPoint" />
          </mxGeometry>
        </mxCell>
        <mxCell id="xjDcZ34xmgJnRlQgSQSB-32" value="" style="endArrow=none;html=1;rounded=0;strokeWidth=3;" parent="1" edge="1">
          <mxGeometry width="50" height="50" relative="1" as="geometry">
            <mxPoint x="680" y="399.79999999999995" as="sourcePoint" />
            <mxPoint x="720" y="399.79999999999995" as="targetPoint" />
          </mxGeometry>
        </mxCell>
        <mxCell id="xjDcZ34xmgJnRlQgSQSB-39" value="" style="group" parent="1" vertex="1" connectable="0">
          <mxGeometry x="690" y="314.5" width="20" height="55" as="geometry" />
        </mxCell>
        <mxCell id="xjDcZ34xmgJnRlQgSQSB-33" value="" style="shape=orEllipse;perimeter=ellipsePerimeter;whiteSpace=wrap;html=1;backgroundOutline=1;" parent="xjDcZ34xmgJnRlQgSQSB-39" vertex="1">
          <mxGeometry y="35" width="20" height="20" as="geometry" />
        </mxCell>
        <mxCell id="xjDcZ34xmgJnRlQgSQSB-36" value="" style="endArrow=none;html=1;rounded=0;strokeWidth=3;entryX=0.5;entryY=0;entryDx=0;entryDy=0;" parent="xjDcZ34xmgJnRlQgSQSB-39" source="xjDcZ34xmgJnRlQgSQSB-37" target="xjDcZ34xmgJnRlQgSQSB-33" edge="1">
          <mxGeometry width="50" height="50" relative="1" as="geometry">
            <mxPoint x="10" y="5" as="sourcePoint" />
            <mxPoint x="50" y="5" as="targetPoint" />
          </mxGeometry>
        </mxCell>
        <mxCell id="xjDcZ34xmgJnRlQgSQSB-38" value="" style="endArrow=none;html=1;rounded=0;strokeWidth=3;entryX=0.5;entryY=0;entryDx=0;entryDy=0;" parent="xjDcZ34xmgJnRlQgSQSB-39" target="xjDcZ34xmgJnRlQgSQSB-37" edge="1">
          <mxGeometry width="50" height="50" relative="1" as="geometry">
            <mxPoint x="10" y="5" as="sourcePoint" />
            <mxPoint x="10" y="35" as="targetPoint" />
          </mxGeometry>
        </mxCell>
        <mxCell id="xjDcZ34xmgJnRlQgSQSB-37" value="" style="ellipse;whiteSpace=wrap;html=1;aspect=fixed;fillColor=#000000;" parent="xjDcZ34xmgJnRlQgSQSB-39" vertex="1">
          <mxGeometry x="5" width="10" height="10" as="geometry" />
        </mxCell>
        <mxCell id="xjDcZ34xmgJnRlQgSQSB-51" value="Repeated \(d/2\) times" style="text;html=1;strokeColor=none;fillColor=none;align=right;verticalAlign=middle;whiteSpace=wrap;rounded=0;" parent="1" vertex="1">
          <mxGeometry x="600" y="222" width="114" height="30" as="geometry" />
        </mxCell>
        <mxCell id="xjDcZ34xmgJnRlQgSQSB-55" value="" style="group" parent="1" vertex="1" connectable="0">
          <mxGeometry x="720" y="263.25" width="30" height="33.5" as="geometry" />
        </mxCell>
        <mxCell id="xjDcZ34xmgJnRlQgSQSB-52" value="" style="rounded=0;whiteSpace=wrap;html=1;" parent="xjDcZ34xmgJnRlQgSQSB-55" vertex="1">
          <mxGeometry width="30" height="30" as="geometry" />
        </mxCell>
        <mxCell id="xjDcZ34xmgJnRlQgSQSB-53" value="" style="verticalLabelPosition=bottom;verticalAlign=top;html=1;shape=mxgraph.basic.arc;startAngle=0.4968173254495136;endAngle=0;direction=south;strokeWidth=2;" parent="xjDcZ34xmgJnRlQgSQSB-55" vertex="1">
          <mxGeometry x="3.25" y="11.5" width="23.75" height="22" as="geometry" />
        </mxCell>
        <mxCell id="xjDcZ34xmgJnRlQgSQSB-54" value="" style="endArrow=classic;html=1;rounded=0;strokeWidth=2;endSize=3;startSize=3;" parent="xjDcZ34xmgJnRlQgSQSB-55" edge="1">
          <mxGeometry width="50" height="50" relative="1" as="geometry">
            <mxPoint x="10" y="22.5" as="sourcePoint" />
            <mxPoint x="28" y="2" as="targetPoint" />
          </mxGeometry>
        </mxCell>
        <mxCell id="xjDcZ34xmgJnRlQgSQSB-60" value="$$R_z(\theta_{\ell+1,z}^{(1)})$$" style="rounded=0;whiteSpace=wrap;html=1;" parent="1" vertex="1">
          <mxGeometry x="600" y="265" width="80" height="30" as="geometry" />
        </mxCell>
        <mxCell id="xjDcZ34xmgJnRlQgSQSB-61" value="$$R_z(\theta_{\ell+1,z}^{(2)})$$" style="rounded=0;whiteSpace=wrap;html=1;" parent="1" vertex="1">
          <mxGeometry x="600" y="305" width="80" height="30" as="geometry" />
        </mxCell>
        <mxCell id="xjDcZ34xmgJnRlQgSQSB-62" value="$$R_z(\theta_{\ell+1,z}^{(3)})$$" style="rounded=0;whiteSpace=wrap;html=1;" parent="1" vertex="1">
          <mxGeometry x="600" y="345" width="80" height="30" as="geometry" />
        </mxCell>
        <mxCell id="xjDcZ34xmgJnRlQgSQSB-63" value="$$R_z(\theta_{\ell+1,z}^{(4)})$$" style="rounded=0;whiteSpace=wrap;html=1;" parent="1" vertex="1">
          <mxGeometry x="600" y="385" width="80" height="30" as="geometry" />
        </mxCell>
        <mxCell id="xjDcZ34xmgJnRlQgSQSB-65" value="" style="endArrow=none;html=1;rounded=0;strokeWidth=3;" parent="1" edge="1">
          <mxGeometry width="50" height="50" relative="1" as="geometry">
            <mxPoint x="680" y="279.8" as="sourcePoint" />
            <mxPoint x="720" y="279.8" as="targetPoint" />
          </mxGeometry>
        </mxCell>
        <mxCell id="xjDcZ34xmgJnRlQgSQSB-66" value="" style="endArrow=none;html=1;rounded=0;strokeWidth=3;" parent="1" edge="1">
          <mxGeometry width="50" height="50" relative="1" as="geometry">
            <mxPoint x="680" y="319.8" as="sourcePoint" />
            <mxPoint x="720" y="319.8" as="targetPoint" />
          </mxGeometry>
        </mxCell>
        <mxCell id="xjDcZ34xmgJnRlQgSQSB-67" value="" style="endArrow=none;html=1;rounded=0;strokeWidth=3;" parent="1" edge="1">
          <mxGeometry width="50" height="50" relative="1" as="geometry">
            <mxPoint x="440" y="279.80000000000007" as="sourcePoint" />
            <mxPoint x="480" y="279.80000000000007" as="targetPoint" />
          </mxGeometry>
        </mxCell>
        <mxCell id="xjDcZ34xmgJnRlQgSQSB-68" value="" style="endArrow=none;html=1;rounded=0;strokeWidth=3;" parent="1" edge="1">
          <mxGeometry width="50" height="50" relative="1" as="geometry">
            <mxPoint x="440" y="319.8" as="sourcePoint" />
            <mxPoint x="480" y="319.8" as="targetPoint" />
          </mxGeometry>
        </mxCell>
        <mxCell id="xjDcZ34xmgJnRlQgSQSB-69" value="" style="endArrow=none;html=1;rounded=0;strokeWidth=3;" parent="1" edge="1">
          <mxGeometry width="50" height="50" relative="1" as="geometry">
            <mxPoint x="440" y="402.26" as="sourcePoint" />
            <mxPoint x="480" y="402.26" as="targetPoint" />
          </mxGeometry>
        </mxCell>
        <mxCell id="xjDcZ34xmgJnRlQgSQSB-70" value="$$R_z(\theta_{\ell,z}^{(4)})$$" style="rounded=0;whiteSpace=wrap;html=1;" parent="1" vertex="1">
          <mxGeometry x="360" y="385" width="80" height="30" as="geometry" />
        </mxCell>
        <mxCell id="xjDcZ34xmgJnRlQgSQSB-71" value="$$R_z(\theta_{\ell,z}^{(3)})$$" style="rounded=0;whiteSpace=wrap;html=1;" parent="1" vertex="1">
          <mxGeometry x="360" y="345" width="80" height="30" as="geometry" />
        </mxCell>
        <mxCell id="xjDcZ34xmgJnRlQgSQSB-72" value="$$R_z(\theta_{\ell,z}^{(2)})$$" style="rounded=0;whiteSpace=wrap;html=1;" parent="1" vertex="1">
          <mxGeometry x="360" y="305" width="80" height="30" as="geometry" />
        </mxCell>
        <mxCell id="xjDcZ34xmgJnRlQgSQSB-73" value="$$R_z(\theta_{\ell,z}^{(1)})$$" style="rounded=0;whiteSpace=wrap;html=1;" parent="1" vertex="1">
          <mxGeometry x="360" y="265" width="80" height="30" as="geometry" />
        </mxCell>
        <mxCell id="xjDcZ34xmgJnRlQgSQSB-74" value="" style="endArrow=none;html=1;rounded=0;strokeWidth=3;" parent="1" edge="1">
          <mxGeometry width="50" height="50" relative="1" as="geometry">
            <mxPoint x="440" y="359.8" as="sourcePoint" />
            <mxPoint x="480" y="359.8" as="targetPoint" />
          </mxGeometry>
        </mxCell>
        <mxCell id="xjDcZ34xmgJnRlQgSQSB-40" value="" style="group" parent="1" vertex="1" connectable="0">
          <mxGeometry x="450" y="356" width="20" height="55" as="geometry" />
        </mxCell>
        <mxCell id="xjDcZ34xmgJnRlQgSQSB-41" value="" style="shape=orEllipse;perimeter=ellipsePerimeter;whiteSpace=wrap;html=1;backgroundOutline=1;" parent="xjDcZ34xmgJnRlQgSQSB-40" vertex="1">
          <mxGeometry y="35" width="20" height="20" as="geometry" />
        </mxCell>
        <mxCell id="xjDcZ34xmgJnRlQgSQSB-42" value="" style="endArrow=none;html=1;rounded=0;strokeWidth=3;entryX=0.5;entryY=0;entryDx=0;entryDy=0;" parent="xjDcZ34xmgJnRlQgSQSB-40" source="xjDcZ34xmgJnRlQgSQSB-44" target="xjDcZ34xmgJnRlQgSQSB-41" edge="1">
          <mxGeometry width="50" height="50" relative="1" as="geometry">
            <mxPoint x="10" y="5" as="sourcePoint" />
            <mxPoint x="50" y="5" as="targetPoint" />
          </mxGeometry>
        </mxCell>
        <mxCell id="xjDcZ34xmgJnRlQgSQSB-43" value="" style="endArrow=none;html=1;rounded=0;strokeWidth=3;entryX=0.5;entryY=0;entryDx=0;entryDy=0;" parent="xjDcZ34xmgJnRlQgSQSB-40" target="xjDcZ34xmgJnRlQgSQSB-44" edge="1">
          <mxGeometry width="50" height="50" relative="1" as="geometry">
            <mxPoint x="10" y="5" as="sourcePoint" />
            <mxPoint x="10" y="35" as="targetPoint" />
          </mxGeometry>
        </mxCell>
        <mxCell id="xjDcZ34xmgJnRlQgSQSB-44" value="" style="ellipse;whiteSpace=wrap;html=1;aspect=fixed;fillColor=#000000;" parent="xjDcZ34xmgJnRlQgSQSB-40" vertex="1">
          <mxGeometry x="5" width="10" height="10" as="geometry" />
        </mxCell>
        <mxCell id="xjDcZ34xmgJnRlQgSQSB-45" value="" style="group" parent="1" vertex="1" connectable="0">
          <mxGeometry x="450" y="275" width="20" height="55" as="geometry" />
        </mxCell>
        <mxCell id="xjDcZ34xmgJnRlQgSQSB-46" value="" style="shape=orEllipse;perimeter=ellipsePerimeter;whiteSpace=wrap;html=1;backgroundOutline=1;" parent="xjDcZ34xmgJnRlQgSQSB-45" vertex="1">
          <mxGeometry y="35" width="20" height="20" as="geometry" />
        </mxCell>
        <mxCell id="xjDcZ34xmgJnRlQgSQSB-47" value="" style="endArrow=none;html=1;rounded=0;strokeWidth=3;entryX=0.5;entryY=0;entryDx=0;entryDy=0;" parent="xjDcZ34xmgJnRlQgSQSB-45" source="xjDcZ34xmgJnRlQgSQSB-49" target="xjDcZ34xmgJnRlQgSQSB-46" edge="1">
          <mxGeometry width="50" height="50" relative="1" as="geometry">
            <mxPoint x="10" y="5" as="sourcePoint" />
            <mxPoint x="50" y="5" as="targetPoint" />
          </mxGeometry>
        </mxCell>
        <mxCell id="xjDcZ34xmgJnRlQgSQSB-48" value="" style="endArrow=none;html=1;rounded=0;strokeWidth=3;entryX=0.5;entryY=0;entryDx=0;entryDy=0;" parent="xjDcZ34xmgJnRlQgSQSB-45" target="xjDcZ34xmgJnRlQgSQSB-49" edge="1">
          <mxGeometry width="50" height="50" relative="1" as="geometry">
            <mxPoint x="10" y="5" as="sourcePoint" />
            <mxPoint x="10" y="35" as="targetPoint" />
          </mxGeometry>
        </mxCell>
        <mxCell id="xjDcZ34xmgJnRlQgSQSB-49" value="" style="ellipse;whiteSpace=wrap;html=1;aspect=fixed;fillColor=#000000;" parent="xjDcZ34xmgJnRlQgSQSB-45" vertex="1">
          <mxGeometry x="5" width="10" height="10" as="geometry" />
        </mxCell>
        <mxCell id="QwMSYQ1AuQ9wKw-YEyIt-1" value="$$N$$" style="text;html=1;align=center;verticalAlign=middle;resizable=0;points=[];autosize=1;strokeColor=none;fillColor=none;" parent="1" vertex="1">
          <mxGeometry x="120" y="326" width="60" height="30" as="geometry" />
        </mxCell>
      </root>
    </mxGraphModel>
  </diagram>
  <diagram id="WEahEtCvBez-CJQFa3Us" name="fPQC">
    <mxGraphModel dx="158" dy="92" grid="1" gridSize="10" guides="1" tooltips="1" connect="1" arrows="1" fold="1" page="1" pageScale="1" pageWidth="850" pageHeight="1100" math="1" shadow="0">
      <root>
        <mxCell id="0" />
        <mxCell id="1" parent="0" />
        <mxCell id="ZG2-De8kKxuCI0GfSy4E-1" value="" style="rounded=0;whiteSpace=wrap;html=1;fillColor=none;dashed=1;" parent="1" vertex="1">
          <mxGeometry x="228" y="252" width="486" height="180" as="geometry" />
        </mxCell>
        <mxCell id="ZG2-De8kKxuCI0GfSy4E-2" value="$$\left| 0 \right\rangle$$" style="text;html=1;align=center;verticalAlign=middle;resizable=0;points=[];autosize=1;strokeColor=none;fillColor=none;fontSize=18;" parent="1" vertex="1">
          <mxGeometry x="70" y="260" width="210" height="40" as="geometry" />
        </mxCell>
        <mxCell id="ZG2-De8kKxuCI0GfSy4E-3" value="" style="endArrow=none;html=1;rounded=0;strokeWidth=3;" parent="1" edge="1">
          <mxGeometry width="50" height="50" relative="1" as="geometry">
            <mxPoint x="200" y="280" as="sourcePoint" />
            <mxPoint x="240" y="280" as="targetPoint" />
          </mxGeometry>
        </mxCell>
        <mxCell id="ZG2-De8kKxuCI0GfSy4E-4" value="$$\left| 0 \right\rangle$$" style="text;html=1;align=center;verticalAlign=middle;resizable=0;points=[];autosize=1;strokeColor=none;fillColor=none;fontSize=18;" parent="1" vertex="1">
          <mxGeometry x="70" y="300" width="210" height="40" as="geometry" />
        </mxCell>
        <mxCell id="ZG2-De8kKxuCI0GfSy4E-5" value="$$\left| 0 \right\rangle$$" style="text;html=1;align=center;verticalAlign=middle;resizable=0;points=[];autosize=1;strokeColor=none;fillColor=none;fontSize=18;" parent="1" vertex="1">
          <mxGeometry x="70" y="340" width="210" height="40" as="geometry" />
        </mxCell>
        <mxCell id="ZG2-De8kKxuCI0GfSy4E-6" value="$$\left| 0 \right\rangle$$" style="text;html=1;align=center;verticalAlign=middle;resizable=0;points=[];autosize=1;strokeColor=none;fillColor=none;fontSize=18;" parent="1" vertex="1">
          <mxGeometry x="70" y="380" width="210" height="40" as="geometry" />
        </mxCell>
        <mxCell id="ZG2-De8kKxuCI0GfSy4E-7" value="" style="endArrow=none;html=1;rounded=0;strokeWidth=3;" parent="1" edge="1">
          <mxGeometry width="50" height="50" relative="1" as="geometry">
            <mxPoint x="200" y="319.71" as="sourcePoint" />
            <mxPoint x="240" y="319.71" as="targetPoint" />
          </mxGeometry>
        </mxCell>
        <mxCell id="ZG2-De8kKxuCI0GfSy4E-8" value="" style="endArrow=none;html=1;rounded=0;strokeWidth=3;" parent="1" edge="1">
          <mxGeometry width="50" height="50" relative="1" as="geometry">
            <mxPoint x="200" y="359.71" as="sourcePoint" />
            <mxPoint x="240" y="359.71" as="targetPoint" />
          </mxGeometry>
        </mxCell>
        <mxCell id="ZG2-De8kKxuCI0GfSy4E-9" value="" style="endArrow=none;html=1;rounded=0;strokeWidth=3;" parent="1" edge="1">
          <mxGeometry width="50" height="50" relative="1" as="geometry">
            <mxPoint x="200" y="399.71" as="sourcePoint" />
            <mxPoint x="240" y="399.71" as="targetPoint" />
          </mxGeometry>
        </mxCell>
        <mxCell id="ZG2-De8kKxuCI0GfSy4E-10" value="$$\text{f}R_{yy}(\theta_{\ell,y}^{(1)},\theta_{\ell,y}^{(2)}&lt;br&gt;)$$" style="rounded=0;whiteSpace=wrap;html=1;" parent="1" vertex="1">
          <mxGeometry x="240" y="265" width="100" height="70" as="geometry" />
        </mxCell>
        <mxCell id="ZG2-De8kKxuCI0GfSy4E-12" value="$$\text{f}&lt;br&gt;R_y(\theta_{\ell,y}^{(3)})$$" style="rounded=0;whiteSpace=wrap;html=1;" parent="1" vertex="1">
          <mxGeometry x="240" y="345" width="80" height="30" as="geometry" />
        </mxCell>
        <mxCell id="ZG2-De8kKxuCI0GfSy4E-13" value="$$\text{f}&lt;br&gt;R_y(\theta_{\ell,y}^{(4)})$$" style="rounded=0;whiteSpace=wrap;html=1;" parent="1" vertex="1">
          <mxGeometry x="240" y="385" width="80" height="30" as="geometry" />
        </mxCell>
        <mxCell id="ZG2-De8kKxuCI0GfSy4E-14" value="$$\text{f}&lt;br&gt;R_y(\theta_{\ell+1,y}^{(1)})$$" style="rounded=0;whiteSpace=wrap;html=1;" parent="1" vertex="1">
          <mxGeometry x="480" y="265" width="80" height="30" as="geometry" />
        </mxCell>
        <mxCell id="ZG2-De8kKxuCI0GfSy4E-15" value="$$\text{f}&lt;br&gt;R_y(\theta_{\ell+1,y}^{(2)})$$" style="rounded=0;whiteSpace=wrap;html=1;" parent="1" vertex="1">
          <mxGeometry x="480" y="305" width="80" height="30" as="geometry" />
        </mxCell>
        <mxCell id="ZG2-De8kKxuCI0GfSy4E-16" value="$$\text{f}&lt;br&gt;R_y(\theta_{\ell+1,y}^{(3)})$$" style="rounded=0;whiteSpace=wrap;html=1;" parent="1" vertex="1">
          <mxGeometry x="480" y="345" width="80" height="30" as="geometry" />
        </mxCell>
        <mxCell id="ZG2-De8kKxuCI0GfSy4E-17" value="$$\text{f}&lt;br&gt;R_y(\theta_{\ell+1,y}^{(4)})$$" style="rounded=0;whiteSpace=wrap;html=1;" parent="1" vertex="1">
          <mxGeometry x="480" y="385" width="80" height="30" as="geometry" />
        </mxCell>
        <mxCell id="ZG2-De8kKxuCI0GfSy4E-18" value="" style="endArrow=none;html=1;rounded=0;strokeWidth=3;" parent="1" edge="1">
          <mxGeometry width="50" height="50" relative="1" as="geometry">
            <mxPoint x="320" y="399.71" as="sourcePoint" />
            <mxPoint x="360" y="399.71" as="targetPoint" />
          </mxGeometry>
        </mxCell>
        <mxCell id="ZG2-De8kKxuCI0GfSy4E-19" value="" style="endArrow=none;html=1;rounded=0;strokeWidth=3;" parent="1" edge="1">
          <mxGeometry width="50" height="50" relative="1" as="geometry">
            <mxPoint x="320" y="359.71" as="sourcePoint" />
            <mxPoint x="360" y="359.71" as="targetPoint" />
          </mxGeometry>
        </mxCell>
        <mxCell id="ZG2-De8kKxuCI0GfSy4E-20" value="" style="endArrow=none;html=1;rounded=0;strokeWidth=3;exitX=1.003;exitY=0.785;exitDx=0;exitDy=0;exitPerimeter=0;" parent="1" edge="1" source="ZG2-De8kKxuCI0GfSy4E-10">
          <mxGeometry width="50" height="50" relative="1" as="geometry">
            <mxPoint x="340" y="320" as="sourcePoint" />
            <mxPoint x="360" y="319.71" as="targetPoint" />
          </mxGeometry>
        </mxCell>
        <mxCell id="ZG2-De8kKxuCI0GfSy4E-21" value="" style="endArrow=none;html=1;rounded=0;strokeWidth=3;" parent="1" edge="1">
          <mxGeometry width="50" height="50" relative="1" as="geometry">
            <mxPoint x="340" y="280" as="sourcePoint" />
            <mxPoint x="360" y="280" as="targetPoint" />
          </mxGeometry>
        </mxCell>
        <mxCell id="ZG2-De8kKxuCI0GfSy4E-22" value="" style="endArrow=none;html=1;rounded=0;strokeWidth=3;" parent="1" edge="1">
          <mxGeometry width="50" height="50" relative="1" as="geometry">
            <mxPoint x="560" y="399.79999999999995" as="sourcePoint" />
            <mxPoint x="600" y="399.79999999999995" as="targetPoint" />
          </mxGeometry>
        </mxCell>
        <mxCell id="ZG2-De8kKxuCI0GfSy4E-23" value="" style="endArrow=none;html=1;rounded=0;strokeWidth=3;" parent="1" edge="1">
          <mxGeometry width="50" height="50" relative="1" as="geometry">
            <mxPoint x="560" y="359.79999999999995" as="sourcePoint" />
            <mxPoint x="600" y="359.79999999999995" as="targetPoint" />
          </mxGeometry>
        </mxCell>
        <mxCell id="ZG2-De8kKxuCI0GfSy4E-24" value="" style="endArrow=none;html=1;rounded=0;strokeWidth=3;" parent="1" edge="1">
          <mxGeometry width="50" height="50" relative="1" as="geometry">
            <mxPoint x="560" y="319.79999999999995" as="sourcePoint" />
            <mxPoint x="600" y="319.79999999999995" as="targetPoint" />
          </mxGeometry>
        </mxCell>
        <mxCell id="ZG2-De8kKxuCI0GfSy4E-25" value="" style="endArrow=none;html=1;rounded=0;strokeWidth=3;" parent="1" edge="1">
          <mxGeometry width="50" height="50" relative="1" as="geometry">
            <mxPoint x="560" y="279.8" as="sourcePoint" />
            <mxPoint x="600" y="279.8" as="targetPoint" />
          </mxGeometry>
        </mxCell>
        <mxCell id="ZG2-De8kKxuCI0GfSy4E-26" value="" style="endArrow=none;html=1;rounded=0;strokeWidth=3;" parent="1" edge="1">
          <mxGeometry width="50" height="50" relative="1" as="geometry">
            <mxPoint x="680" y="359.79999999999995" as="sourcePoint" />
            <mxPoint x="720" y="359.79999999999995" as="targetPoint" />
          </mxGeometry>
        </mxCell>
        <mxCell id="ZG2-De8kKxuCI0GfSy4E-27" value="" style="endArrow=none;html=1;rounded=0;strokeWidth=3;" parent="1" edge="1">
          <mxGeometry width="50" height="50" relative="1" as="geometry">
            <mxPoint x="680" y="399.79999999999995" as="sourcePoint" />
            <mxPoint x="720" y="399.79999999999995" as="targetPoint" />
          </mxGeometry>
        </mxCell>
        <mxCell id="ZG2-De8kKxuCI0GfSy4E-33" value="Repeated \(d/2\) times" style="text;html=1;strokeColor=none;fillColor=none;align=right;verticalAlign=middle;whiteSpace=wrap;rounded=0;" parent="1" vertex="1">
          <mxGeometry x="600" y="222" width="114" height="30" as="geometry" />
        </mxCell>
        <mxCell id="ZG2-De8kKxuCI0GfSy4E-34" value="" style="group" parent="1" vertex="1" connectable="0">
          <mxGeometry x="720" y="263.25" width="30" height="33.5" as="geometry" />
        </mxCell>
        <mxCell id="ZG2-De8kKxuCI0GfSy4E-35" value="" style="rounded=0;whiteSpace=wrap;html=1;" parent="ZG2-De8kKxuCI0GfSy4E-34" vertex="1">
          <mxGeometry width="30" height="30" as="geometry" />
        </mxCell>
        <mxCell id="ZG2-De8kKxuCI0GfSy4E-36" value="" style="verticalLabelPosition=bottom;verticalAlign=top;html=1;shape=mxgraph.basic.arc;startAngle=0.4968173254495136;endAngle=0;direction=south;strokeWidth=2;" parent="ZG2-De8kKxuCI0GfSy4E-34" vertex="1">
          <mxGeometry x="3.25" y="11.5" width="23.75" height="22" as="geometry" />
        </mxCell>
        <mxCell id="ZG2-De8kKxuCI0GfSy4E-37" value="" style="endArrow=classic;html=1;rounded=0;strokeWidth=2;endSize=3;startSize=3;" parent="ZG2-De8kKxuCI0GfSy4E-34" edge="1">
          <mxGeometry width="50" height="50" relative="1" as="geometry">
            <mxPoint x="10" y="22.5" as="sourcePoint" />
            <mxPoint x="28" y="2" as="targetPoint" />
          </mxGeometry>
        </mxCell>
        <mxCell id="ZG2-De8kKxuCI0GfSy4E-38" value="$$\text{f}&lt;br&gt;R_z(\theta_{\ell+1,z}^{(1)})$$" style="rounded=0;whiteSpace=wrap;html=1;" parent="1" vertex="1">
          <mxGeometry x="600" y="265" width="80" height="30" as="geometry" />
        </mxCell>
        <mxCell id="ZG2-De8kKxuCI0GfSy4E-39" value="$$\text{f}&lt;br&gt;R_z(\theta_{\ell+1,z}^{(2)})$$" style="rounded=0;whiteSpace=wrap;html=1;" parent="1" vertex="1">
          <mxGeometry x="600" y="305" width="80" height="30" as="geometry" />
        </mxCell>
        <mxCell id="ZG2-De8kKxuCI0GfSy4E-40" value="$$\text{f}&lt;br&gt;R_z(\theta_{\ell+1,z}^{(3)})$$" style="rounded=0;whiteSpace=wrap;html=1;" parent="1" vertex="1">
          <mxGeometry x="600" y="345" width="80" height="30" as="geometry" />
        </mxCell>
        <mxCell id="ZG2-De8kKxuCI0GfSy4E-41" value="$$\text{f}&lt;br&gt;R_z(\theta_{\ell+1,z}^{(4)})$$" style="rounded=0;whiteSpace=wrap;html=1;" parent="1" vertex="1">
          <mxGeometry x="600" y="385" width="80" height="30" as="geometry" />
        </mxCell>
        <mxCell id="ZG2-De8kKxuCI0GfSy4E-42" value="" style="endArrow=none;html=1;rounded=0;strokeWidth=3;" parent="1" edge="1">
          <mxGeometry width="50" height="50" relative="1" as="geometry">
            <mxPoint x="680" y="279.8" as="sourcePoint" />
            <mxPoint x="720" y="279.8" as="targetPoint" />
          </mxGeometry>
        </mxCell>
        <mxCell id="ZG2-De8kKxuCI0GfSy4E-43" value="" style="endArrow=none;html=1;rounded=0;strokeWidth=3;" parent="1" edge="1">
          <mxGeometry width="50" height="50" relative="1" as="geometry">
            <mxPoint x="680" y="319.8" as="sourcePoint" />
            <mxPoint x="720" y="319.8" as="targetPoint" />
          </mxGeometry>
        </mxCell>
        <mxCell id="ZG2-De8kKxuCI0GfSy4E-44" value="" style="endArrow=none;html=1;rounded=0;strokeWidth=3;" parent="1" edge="1">
          <mxGeometry width="50" height="50" relative="1" as="geometry">
            <mxPoint x="440" y="279.80000000000007" as="sourcePoint" />
            <mxPoint x="480" y="279.80000000000007" as="targetPoint" />
          </mxGeometry>
        </mxCell>
        <mxCell id="ZG2-De8kKxuCI0GfSy4E-45" value="" style="endArrow=none;html=1;rounded=0;strokeWidth=3;" parent="1" edge="1">
          <mxGeometry width="50" height="50" relative="1" as="geometry">
            <mxPoint x="440" y="319.8" as="sourcePoint" />
            <mxPoint x="480" y="319.8" as="targetPoint" />
          </mxGeometry>
        </mxCell>
        <mxCell id="ZG2-De8kKxuCI0GfSy4E-46" value="" style="endArrow=none;html=1;rounded=0;strokeWidth=3;" parent="1" edge="1">
          <mxGeometry width="50" height="50" relative="1" as="geometry">
            <mxPoint x="440" y="402.26" as="sourcePoint" />
            <mxPoint x="480" y="402.26" as="targetPoint" />
          </mxGeometry>
        </mxCell>
        <mxCell id="ZG2-De8kKxuCI0GfSy4E-47" value="$$\text{f}&lt;br&gt;R_z(\theta_{\ell,z}^{(4)})$$" style="rounded=0;whiteSpace=wrap;html=1;" parent="1" vertex="1">
          <mxGeometry x="360" y="385" width="80" height="30" as="geometry" />
        </mxCell>
        <mxCell id="ZG2-De8kKxuCI0GfSy4E-48" value="$$\text{f}&lt;br&gt;R_z(\theta_{\ell,z}^{(3)})$$" style="rounded=0;whiteSpace=wrap;html=1;" parent="1" vertex="1">
          <mxGeometry x="360" y="345" width="80" height="30" as="geometry" />
        </mxCell>
        <mxCell id="ZG2-De8kKxuCI0GfSy4E-49" value="$$\text{f}&lt;br&gt;R_z(\theta_{\ell,z}^{(2)})$$" style="rounded=0;whiteSpace=wrap;html=1;" parent="1" vertex="1">
          <mxGeometry x="360" y="305" width="80" height="30" as="geometry" />
        </mxCell>
        <mxCell id="ZG2-De8kKxuCI0GfSy4E-50" value="$$\text{f}&lt;br&gt;R_z(\theta_{\ell,z}^{(1)})$$" style="rounded=0;whiteSpace=wrap;html=1;" parent="1" vertex="1">
          <mxGeometry x="360" y="265" width="80" height="30" as="geometry" />
        </mxCell>
        <mxCell id="ZG2-De8kKxuCI0GfSy4E-51" value="" style="endArrow=none;html=1;rounded=0;strokeWidth=3;" parent="1" edge="1">
          <mxGeometry width="50" height="50" relative="1" as="geometry">
            <mxPoint x="440" y="359.8" as="sourcePoint" />
            <mxPoint x="480" y="359.8" as="targetPoint" />
          </mxGeometry>
        </mxCell>
        <mxCell id="ZG2-De8kKxuCI0GfSy4E-62" value="$$N$$" style="text;html=1;align=center;verticalAlign=middle;resizable=0;points=[];autosize=1;strokeColor=none;fillColor=none;" parent="1" vertex="1">
          <mxGeometry x="120" y="326" width="60" height="30" as="geometry" />
        </mxCell>
        <mxCell id="2vW2cTMLKsEyjR7irDOF-7" value="" style="group" parent="1" vertex="1" connectable="0">
          <mxGeometry x="450" y="356" width="20" height="55" as="geometry" />
        </mxCell>
        <mxCell id="Ju4iF16caQ3jdCHsdgQv-1" value="\(\text{f}C\)" style="ellipse;whiteSpace=wrap;html=1;aspect=fixed;fontSize=10;" parent="2vW2cTMLKsEyjR7irDOF-7" vertex="1">
          <mxGeometry y="35" width="20" height="20" as="geometry" />
        </mxCell>
        <mxCell id="2vW2cTMLKsEyjR7irDOF-3" value="" style="endArrow=none;html=1;rounded=0;strokeWidth=3;entryX=0.5;entryY=0;entryDx=0;entryDy=0;" parent="2vW2cTMLKsEyjR7irDOF-7" source="2vW2cTMLKsEyjR7irDOF-5" edge="1">
          <mxGeometry width="50" height="50" relative="1" as="geometry">
            <mxPoint x="10" y="5" as="sourcePoint" />
            <mxPoint x="10" y="35" as="targetPoint" />
          </mxGeometry>
        </mxCell>
        <mxCell id="2vW2cTMLKsEyjR7irDOF-4" value="" style="endArrow=none;html=1;rounded=0;strokeWidth=3;entryX=0.5;entryY=0;entryDx=0;entryDy=0;" parent="2vW2cTMLKsEyjR7irDOF-7" target="2vW2cTMLKsEyjR7irDOF-5" edge="1">
          <mxGeometry width="50" height="50" relative="1" as="geometry">
            <mxPoint x="10" y="5" as="sourcePoint" />
            <mxPoint x="10" y="35" as="targetPoint" />
          </mxGeometry>
        </mxCell>
        <mxCell id="2vW2cTMLKsEyjR7irDOF-5" value="" style="ellipse;whiteSpace=wrap;html=1;aspect=fixed;fillColor=#000000;container=0;" parent="2vW2cTMLKsEyjR7irDOF-7" vertex="1">
          <mxGeometry x="5" width="10" height="10" as="geometry" />
        </mxCell>
        <mxCell id="2vW2cTMLKsEyjR7irDOF-14" value="" style="group" parent="1" vertex="1" connectable="0">
          <mxGeometry x="450" y="274" width="20" height="55" as="geometry" />
        </mxCell>
        <mxCell id="2vW2cTMLKsEyjR7irDOF-15" value="\(\text{f}C\)" style="ellipse;whiteSpace=wrap;html=1;aspect=fixed;fontSize=10;" parent="2vW2cTMLKsEyjR7irDOF-14" vertex="1">
          <mxGeometry y="35" width="20" height="20" as="geometry" />
        </mxCell>
        <mxCell id="2vW2cTMLKsEyjR7irDOF-16" value="" style="endArrow=none;html=1;rounded=0;strokeWidth=3;entryX=0.5;entryY=0;entryDx=0;entryDy=0;" parent="2vW2cTMLKsEyjR7irDOF-14" source="2vW2cTMLKsEyjR7irDOF-18" edge="1">
          <mxGeometry width="50" height="50" relative="1" as="geometry">
            <mxPoint x="10" y="5" as="sourcePoint" />
            <mxPoint x="10" y="35" as="targetPoint" />
          </mxGeometry>
        </mxCell>
        <mxCell id="2vW2cTMLKsEyjR7irDOF-17" value="" style="endArrow=none;html=1;rounded=0;strokeWidth=3;entryX=0.5;entryY=0;entryDx=0;entryDy=0;" parent="2vW2cTMLKsEyjR7irDOF-14" target="2vW2cTMLKsEyjR7irDOF-18" edge="1">
          <mxGeometry width="50" height="50" relative="1" as="geometry">
            <mxPoint x="10" y="5" as="sourcePoint" />
            <mxPoint x="10" y="35" as="targetPoint" />
          </mxGeometry>
        </mxCell>
        <mxCell id="2vW2cTMLKsEyjR7irDOF-18" value="" style="ellipse;whiteSpace=wrap;html=1;aspect=fixed;fillColor=#000000;container=0;" parent="2vW2cTMLKsEyjR7irDOF-14" vertex="1">
          <mxGeometry x="5" width="10" height="10" as="geometry" />
        </mxCell>
        <mxCell id="2vW2cTMLKsEyjR7irDOF-19" value="" style="group" parent="1" vertex="1" connectable="0">
          <mxGeometry x="688" y="315" width="20" height="55" as="geometry" />
        </mxCell>
        <mxCell id="2vW2cTMLKsEyjR7irDOF-20" value="\(\text{f}C\)" style="ellipse;whiteSpace=wrap;html=1;aspect=fixed;fontSize=10;" parent="2vW2cTMLKsEyjR7irDOF-19" vertex="1">
          <mxGeometry y="35" width="20" height="20" as="geometry" />
        </mxCell>
        <mxCell id="2vW2cTMLKsEyjR7irDOF-21" value="" style="endArrow=none;html=1;rounded=0;strokeWidth=3;entryX=0.5;entryY=0;entryDx=0;entryDy=0;" parent="2vW2cTMLKsEyjR7irDOF-19" source="2vW2cTMLKsEyjR7irDOF-23" edge="1">
          <mxGeometry width="50" height="50" relative="1" as="geometry">
            <mxPoint x="10" y="5" as="sourcePoint" />
            <mxPoint x="10" y="35" as="targetPoint" />
          </mxGeometry>
        </mxCell>
        <mxCell id="2vW2cTMLKsEyjR7irDOF-22" value="" style="endArrow=none;html=1;rounded=0;strokeWidth=3;entryX=0.5;entryY=0;entryDx=0;entryDy=0;" parent="2vW2cTMLKsEyjR7irDOF-19" target="2vW2cTMLKsEyjR7irDOF-23" edge="1">
          <mxGeometry width="50" height="50" relative="1" as="geometry">
            <mxPoint x="10" y="5" as="sourcePoint" />
            <mxPoint x="10" y="35" as="targetPoint" />
          </mxGeometry>
        </mxCell>
        <mxCell id="2vW2cTMLKsEyjR7irDOF-23" value="" style="ellipse;whiteSpace=wrap;html=1;aspect=fixed;fillColor=#000000;container=0;" parent="2vW2cTMLKsEyjR7irDOF-19" vertex="1">
          <mxGeometry x="5" width="10" height="10" as="geometry" />
        </mxCell>
      </root>
    </mxGraphModel>
  </diagram>
  <diagram id="_U15lNL8UjTK5W8QfZo6" name="fCNOT">
    <mxGraphModel dx="819" dy="478" grid="1" gridSize="10" guides="1" tooltips="1" connect="1" arrows="1" fold="1" page="1" pageScale="1" pageWidth="850" pageHeight="1100" math="1" shadow="0">
      <root>
        <mxCell id="0" />
        <mxCell id="1" parent="0" />
        <mxCell id="HvRbLFJIcwfOpzgIxP8u-1" value="$$\left| 0 \right\rangle$$" style="text;html=1;align=center;verticalAlign=middle;resizable=0;points=[];autosize=1;strokeColor=none;fillColor=none;fontSize=18;" vertex="1" parent="1">
          <mxGeometry x="160" y="277.5" width="210" height="40" as="geometry" />
        </mxCell>
        <mxCell id="HvRbLFJIcwfOpzgIxP8u-3" value="$$\left| 0 \right\rangle$$" style="text;html=1;align=center;verticalAlign=middle;resizable=0;points=[];autosize=1;strokeColor=none;fillColor=none;fontSize=18;" vertex="1" parent="1">
          <mxGeometry x="160" y="317.5" width="210" height="40" as="geometry" />
        </mxCell>
        <mxCell id="fqls-50w0-N7MmqxJIjK-1" value="" style="group" vertex="1" connectable="0" parent="1">
          <mxGeometry x="180" y="290" width="20" height="55" as="geometry" />
        </mxCell>
        <mxCell id="fqls-50w0-N7MmqxJIjK-2" value="\(\text{f}C\)" style="ellipse;whiteSpace=wrap;html=1;aspect=fixed;fontSize=10;" vertex="1" parent="fqls-50w0-N7MmqxJIjK-1">
          <mxGeometry y="35" width="20" height="20" as="geometry" />
        </mxCell>
        <mxCell id="fqls-50w0-N7MmqxJIjK-3" value="" style="endArrow=none;html=1;rounded=0;strokeWidth=3;entryX=0.5;entryY=0;entryDx=0;entryDy=0;" edge="1" parent="fqls-50w0-N7MmqxJIjK-1" source="fqls-50w0-N7MmqxJIjK-5">
          <mxGeometry width="50" height="50" relative="1" as="geometry">
            <mxPoint x="10" y="5" as="sourcePoint" />
            <mxPoint x="10" y="35" as="targetPoint" />
          </mxGeometry>
        </mxCell>
        <mxCell id="fqls-50w0-N7MmqxJIjK-4" value="" style="endArrow=none;html=1;rounded=0;strokeWidth=3;entryX=0.5;entryY=0;entryDx=0;entryDy=0;" edge="1" parent="fqls-50w0-N7MmqxJIjK-1" target="fqls-50w0-N7MmqxJIjK-5">
          <mxGeometry width="50" height="50" relative="1" as="geometry">
            <mxPoint x="10" y="5" as="sourcePoint" />
            <mxPoint x="10" y="35" as="targetPoint" />
          </mxGeometry>
        </mxCell>
        <mxCell id="fqls-50w0-N7MmqxJIjK-5" value="" style="ellipse;whiteSpace=wrap;html=1;aspect=fixed;fillColor=#000000;container=0;" vertex="1" parent="fqls-50w0-N7MmqxJIjK-1">
          <mxGeometry x="5" width="10" height="10" as="geometry" />
        </mxCell>
        <mxCell id="HvRbLFJIcwfOpzgIxP8u-2" value="" style="endArrow=none;html=1;rounded=0;strokeWidth=3;" edge="1" parent="1">
          <mxGeometry width="50" height="50" relative="1" as="geometry">
            <mxPoint x="290" y="297.5" as="sourcePoint" />
            <mxPoint x="330" y="297.5" as="targetPoint" />
          </mxGeometry>
        </mxCell>
        <mxCell id="HvRbLFJIcwfOpzgIxP8u-4" value="" style="endArrow=none;html=1;rounded=0;strokeWidth=3;" edge="1" parent="1">
          <mxGeometry width="50" height="50" relative="1" as="geometry">
            <mxPoint x="290" y="337.21" as="sourcePoint" />
            <mxPoint x="330" y="337.21" as="targetPoint" />
          </mxGeometry>
        </mxCell>
        <mxCell id="HvRbLFJIcwfOpzgIxP8u-5" value="$$\text{f}H$$" style="rounded=0;whiteSpace=wrap;html=1;" vertex="1" parent="1">
          <mxGeometry x="330" y="280.5" width="80" height="80" as="geometry" />
        </mxCell>
        <mxCell id="HvRbLFJIcwfOpzgIxP8u-7" value="" style="endArrow=none;html=1;rounded=0;strokeWidth=3;" edge="1" parent="1">
          <mxGeometry width="50" height="50" relative="1" as="geometry">
            <mxPoint x="410" y="337.21" as="sourcePoint" />
            <mxPoint x="450" y="337.21" as="targetPoint" />
          </mxGeometry>
        </mxCell>
        <mxCell id="HvRbLFJIcwfOpzgIxP8u-8" value="" style="endArrow=none;html=1;rounded=0;strokeWidth=3;" edge="1" parent="1">
          <mxGeometry width="50" height="50" relative="1" as="geometry">
            <mxPoint x="410" y="297.5" as="sourcePoint" />
            <mxPoint x="450" y="297.5" as="targetPoint" />
          </mxGeometry>
        </mxCell>
        <mxCell id="HvRbLFJIcwfOpzgIxP8u-9" value="\(=\)" style="text;html=1;align=center;verticalAlign=middle;resizable=0;points=[];autosize=1;strokeColor=none;fillColor=none;fontSize=18;" vertex="1" parent="1">
          <mxGeometry x="195" y="297.5" width="60" height="40" as="geometry" />
        </mxCell>
        <mxCell id="HvRbLFJIcwfOpzgIxP8u-10" value="$$\text{f}CZ$$" style="rounded=0;whiteSpace=wrap;html=1;" vertex="1" parent="1">
          <mxGeometry x="450" y="280.5" width="80" height="80" as="geometry" />
        </mxCell>
        <mxCell id="HvRbLFJIcwfOpzgIxP8u-11" value="$$\text{f}H$$" style="rounded=0;whiteSpace=wrap;html=1;" vertex="1" parent="1">
          <mxGeometry x="570" y="280.5" width="80" height="80" as="geometry" />
        </mxCell>
        <mxCell id="HvRbLFJIcwfOpzgIxP8u-12" value="" style="endArrow=none;html=1;rounded=0;strokeWidth=3;" edge="1" parent="1">
          <mxGeometry width="50" height="50" relative="1" as="geometry">
            <mxPoint x="530" y="337.21" as="sourcePoint" />
            <mxPoint x="570" y="337.21" as="targetPoint" />
          </mxGeometry>
        </mxCell>
        <mxCell id="HvRbLFJIcwfOpzgIxP8u-13" value="" style="endArrow=none;html=1;rounded=0;strokeWidth=3;" edge="1" parent="1">
          <mxGeometry width="50" height="50" relative="1" as="geometry">
            <mxPoint x="530" y="297.5" as="sourcePoint" />
            <mxPoint x="570" y="297.5" as="targetPoint" />
          </mxGeometry>
        </mxCell>
        <mxCell id="HvRbLFJIcwfOpzgIxP8u-14" value="" style="endArrow=none;html=1;rounded=0;strokeWidth=3;" edge="1" parent="1">
          <mxGeometry width="50" height="50" relative="1" as="geometry">
            <mxPoint x="650" y="297.39" as="sourcePoint" />
            <mxPoint x="690" y="297.39" as="targetPoint" />
          </mxGeometry>
        </mxCell>
        <mxCell id="HvRbLFJIcwfOpzgIxP8u-15" value="" style="endArrow=none;html=1;rounded=0;strokeWidth=3;" edge="1" parent="1">
          <mxGeometry width="50" height="50" relative="1" as="geometry">
            <mxPoint x="650" y="337.09999999999997" as="sourcePoint" />
            <mxPoint x="690" y="337.09999999999997" as="targetPoint" />
          </mxGeometry>
        </mxCell>
      </root>
    </mxGraphModel>
  </diagram>
  <diagram id="lgtl5yCVRiyvfQKrc8-l" name="fCZ">
    <mxGraphModel dx="989" dy="577" grid="1" gridSize="10" guides="1" tooltips="1" connect="1" arrows="1" fold="1" page="1" pageScale="1" pageWidth="850" pageHeight="1100" math="1" shadow="0">
      <root>
        <mxCell id="0" />
        <mxCell id="1" parent="0" />
        <mxCell id="kBs9MJdRCFNtT69ddeeR-1" value="$$\text{f}CZ$$" style="rounded=0;whiteSpace=wrap;html=1;" vertex="1" parent="1">
          <mxGeometry x="50" y="280" width="80" height="80" as="geometry" />
        </mxCell>
        <mxCell id="wTXPpqvXs6NFaeNaz0KA-1" value="$$\left| 0 \right\rangle$$" style="text;html=1;align=center;verticalAlign=middle;resizable=0;points=[];autosize=1;strokeColor=none;fillColor=none;fontSize=18;" vertex="1" parent="1">
          <mxGeometry x="95" y="278.5" width="210" height="40" as="geometry" />
        </mxCell>
        <mxCell id="wTXPpqvXs6NFaeNaz0KA-2" value="$$\left| 0 \right\rangle$$" style="text;html=1;align=center;verticalAlign=middle;resizable=0;points=[];autosize=1;strokeColor=none;fillColor=none;fontSize=18;" vertex="1" parent="1">
          <mxGeometry x="95" y="318.5" width="210" height="40" as="geometry" />
        </mxCell>
        <mxCell id="wTXPpqvXs6NFaeNaz0KA-3" value="" style="endArrow=none;html=1;rounded=0;strokeWidth=3;" edge="1" parent="1">
          <mxGeometry width="50" height="50" relative="1" as="geometry">
            <mxPoint x="225" y="298.5" as="sourcePoint" />
            <mxPoint x="265" y="298.5" as="targetPoint" />
          </mxGeometry>
        </mxCell>
        <mxCell id="wTXPpqvXs6NFaeNaz0KA-4" value="" style="endArrow=none;html=1;rounded=0;strokeWidth=3;" edge="1" parent="1">
          <mxGeometry width="50" height="50" relative="1" as="geometry">
            <mxPoint x="225" y="338.21" as="sourcePoint" />
            <mxPoint x="265" y="338.21" as="targetPoint" />
          </mxGeometry>
        </mxCell>
        <mxCell id="wTXPpqvXs6NFaeNaz0KA-5" value="$$\text{f}H$$" style="rounded=0;whiteSpace=wrap;html=1;" vertex="1" parent="1">
          <mxGeometry x="265" y="281.5" width="80" height="80" as="geometry" />
        </mxCell>
        <mxCell id="wTXPpqvXs6NFaeNaz0KA-6" value="" style="endArrow=none;html=1;rounded=0;strokeWidth=3;" edge="1" parent="1">
          <mxGeometry width="50" height="50" relative="1" as="geometry">
            <mxPoint x="345" y="338.21" as="sourcePoint" />
            <mxPoint x="385" y="338.21" as="targetPoint" />
          </mxGeometry>
        </mxCell>
        <mxCell id="wTXPpqvXs6NFaeNaz0KA-7" value="" style="endArrow=none;html=1;rounded=0;strokeWidth=3;" edge="1" parent="1">
          <mxGeometry width="50" height="50" relative="1" as="geometry">
            <mxPoint x="345" y="298.5" as="sourcePoint" />
            <mxPoint x="385" y="298.5" as="targetPoint" />
          </mxGeometry>
        </mxCell>
        <mxCell id="wTXPpqvXs6NFaeNaz0KA-8" value="\(=\)" style="text;html=1;align=center;verticalAlign=middle;resizable=0;points=[];autosize=1;strokeColor=none;fillColor=none;fontSize=18;" vertex="1" parent="1">
          <mxGeometry x="130" y="298.5" width="60" height="40" as="geometry" />
        </mxCell>
        <mxCell id="wTXPpqvXs6NFaeNaz0KA-9" value="$$\text{f}SWAP$$" style="rounded=0;whiteSpace=wrap;html=1;" vertex="1" parent="1">
          <mxGeometry x="385" y="281.5" width="80" height="80" as="geometry" />
        </mxCell>
        <mxCell id="wTXPpqvXs6NFaeNaz0KA-10" value="$$\text{f}XX$$" style="rounded=0;whiteSpace=wrap;html=1;" vertex="1" parent="1">
          <mxGeometry x="505" y="281.5" width="80" height="80" as="geometry" />
        </mxCell>
        <mxCell id="wTXPpqvXs6NFaeNaz0KA-11" value="" style="endArrow=none;html=1;rounded=0;strokeWidth=3;" edge="1" parent="1">
          <mxGeometry width="50" height="50" relative="1" as="geometry">
            <mxPoint x="465" y="338.21" as="sourcePoint" />
            <mxPoint x="505" y="338.21" as="targetPoint" />
          </mxGeometry>
        </mxCell>
        <mxCell id="wTXPpqvXs6NFaeNaz0KA-12" value="" style="endArrow=none;html=1;rounded=0;strokeWidth=3;" edge="1" parent="1">
          <mxGeometry width="50" height="50" relative="1" as="geometry">
            <mxPoint x="465" y="298.5" as="sourcePoint" />
            <mxPoint x="505" y="298.5" as="targetPoint" />
          </mxGeometry>
        </mxCell>
        <mxCell id="wTXPpqvXs6NFaeNaz0KA-13" value="" style="endArrow=none;html=1;rounded=0;strokeWidth=3;" edge="1" parent="1">
          <mxGeometry width="50" height="50" relative="1" as="geometry">
            <mxPoint x="585" y="298.39" as="sourcePoint" />
            <mxPoint x="625" y="298.39" as="targetPoint" />
          </mxGeometry>
        </mxCell>
        <mxCell id="wTXPpqvXs6NFaeNaz0KA-14" value="" style="endArrow=none;html=1;rounded=0;strokeWidth=3;" edge="1" parent="1">
          <mxGeometry width="50" height="50" relative="1" as="geometry">
            <mxPoint x="585" y="338.09999999999997" as="sourcePoint" />
            <mxPoint x="625" y="338.09999999999997" as="targetPoint" />
          </mxGeometry>
        </mxCell>
        <mxCell id="wTXPpqvXs6NFaeNaz0KA-15" value="$$\text{f}H$$" style="rounded=0;whiteSpace=wrap;html=1;" vertex="1" parent="1">
          <mxGeometry x="620" y="280" width="80" height="80" as="geometry" />
        </mxCell>
        <mxCell id="wTXPpqvXs6NFaeNaz0KA-16" value="" style="endArrow=none;html=1;rounded=0;strokeWidth=3;" edge="1" parent="1">
          <mxGeometry width="50" height="50" relative="1" as="geometry">
            <mxPoint x="700" y="296.89" as="sourcePoint" />
            <mxPoint x="740" y="296.89" as="targetPoint" />
          </mxGeometry>
        </mxCell>
        <mxCell id="wTXPpqvXs6NFaeNaz0KA-17" value="" style="endArrow=none;html=1;rounded=0;strokeWidth=3;" edge="1" parent="1">
          <mxGeometry width="50" height="50" relative="1" as="geometry">
            <mxPoint x="700" y="336.59999999999997" as="sourcePoint" />
            <mxPoint x="740" y="336.59999999999997" as="targetPoint" />
          </mxGeometry>
        </mxCell>
      </root>
    </mxGraphModel>
  </diagram>
</mxfile>
